<svg id="Layer_1" data-name="Layer 1" xmlns="http://www.w3.org/2000/svg" viewBox="0 0 704.14 288"><defs><style>.cls-1,.cls-2{fill:#205072;}.cls-2{font-size:93.95px;font-family:SpotifyMix-Bold, Spotify Mix;font-weight:700;}.cls-3{letter-spacing:-0.01em;}.cls-4{letter-spacing:-0.02em;}.cls-5{letter-spacing:-0.12em;}.cls-6{letter-spacing:-0.12em;}</style></defs><title>tictactoe_large</title><path class="cls-1" d="M101,80.83h8c.08.19.25.12.39.12A63.49,63.49,0,0,1,117.72,82a64.81,64.81,0,0,1,36.86,21c14.82,16.82,20,36.44,15.67,58.39a63.06,63.06,0,0,1-20.07,35.25c-16.37,14.77-35.6,20.29-57.32,16.54a64.13,64.13,0,0,1-37.43-20.89,65.47,65.47,0,0,1-17-39,4.15,4.15,0,0,0-.23-1.6v-8.2c.21-.11.12-.3.13-.46a67.85,67.85,0,0,1,1.88-11.85,66.9,66.9,0,0,1,59-50.12A5.43,5.43,0,0,0,101,80.83ZM107.4,117c0-3.65.09-7.3-.23-10.94a35.24,35.24,0,0,0-1-6c-.1-.4-.23-.5-.66-.37-.91.28-1.85.49-2.78.73s-1,.25-1.17,1.29a.13.13,0,0,0,0,.06,94.4,94.4,0,0,0-1,14.35,162.88,162.88,0,0,0,1.56,26.3c.08.56-.07.71-.56.86-12.57,4-25,8.28-36.69,14.66a.84.84,0,0,0-.51.7c-.16,1.44-.35,2.88-.58,4.31-.09.54.09.6.56.54a15.46,15.46,0,0,0,4.08-1.27c11.12-4.94,22.68-8.66,34.26-12.31.43-.13.52-.05.59.38,1.83,10.75,4.39,21.34,7.16,31.88a45.77,45.77,0,0,0,4.16,10.63c.22.39.36.41.68.12,1-.87,2.05-1.74,3.11-2.57a.94.94,0,0,0,.37-.93,59.62,59.62,0,0,0-1.9-10.43c-2.61-10.15-4.74-20.39-6.62-30.7-.1-.52.07-.64.51-.75l18.84-5c5.82-1.58,11.6-3.29,17.29-5.32a.8.8,0,0,0,.63-.85c0-.93.09-1.87.17-2.81.05-.45-.11-.51-.52-.48a137.45,137.45,0,0,0-17.14,2.5c-6.86,1.42-13.61,3.24-20.3,5.26-.51.15-.64,0-.7-.46A195.08,195.08,0,0,1,107.4,117Zm8.41-.1c0,.41,0,.94.08,1.47a13.64,13.64,0,0,0,2.27,6.64,9,9,0,0,0,9.64,3.71,11,11,0,0,0,7.53-7.1,15,15,0,0,0-.36-10.46,11.2,11.2,0,0,0-4.53-5.8c-4.23-2.61-9.24-2.18-12.29,2.75A16.72,16.72,0,0,0,115.81,116.9ZM99.32,174.82a14.77,14.77,0,0,0-4.42-10.28,9.31,9.31,0,0,0-14.51,1.76,14.22,14.22,0,0,0-2.06,8.19,13.43,13.43,0,0,0,3.93,9.69,9.54,9.54,0,0,0,13.79-.4A13.18,13.18,0,0,0,99.32,174.82ZM79.56,136.53l.58.44a17.4,17.4,0,0,0,5.69,3,.9.9,0,0,0,1.08-.24,27.91,27.91,0,0,1,2-2c.36-.35.35-.57,0-.93A33.22,33.22,0,0,0,83.51,132c-.49-.35-.53-.57-.19-1.07a25.13,25.13,0,0,0,3.32-6.68.61.61,0,0,0-.3-.83,11,11,0,0,1-2.43-2c-.51-.58-.83-.45-1.33,0a25.78,25.78,0,0,0-4.69,5.15c-.25.34-.39.43-.67,0s-.63-.75-1-1.12a21.78,21.78,0,0,0-4-3.86.51.51,0,0,0-.76,0c-.6.58-1.22,1.13-1.87,1.65a.63.63,0,0,0-.22.82,12.83,12.83,0,0,0,1.18,2.34A33,33,0,0,0,74.27,131a.56.56,0,0,1,.07.82c-.58.86-1.13,1.75-1.67,2.65a22.41,22.41,0,0,0-2.43,5.4c-.07.27-.13.45.17.64,1.31.85,2.56,1.77,3.9,2.57a.68.68,0,0,0,1-.17,18.9,18.9,0,0,0,2.24-3C78.23,138.8,78.88,137.68,79.56,136.53Zm56,35.46.8.63a20.37,20.37,0,0,0,4.46,2.73.52.52,0,0,0,.77-.23c.69-1,1.43-2,2.14-3s.62-.92-.08-1.82a29.14,29.14,0,0,0-5.21-4.9.61.61,0,0,1-.27-.79c.45-1.4.85-2.82,1.25-4.23a15,15,0,0,0,.81-4.84.77.77,0,0,0-.36-.75c-.85-.5-1.68-1-2.5-1.55-.34-.22-.45-.1-.6.21-1.09,2.34-2.2,4.67-3.28,7-.21.46-.31.52-.71.16a68.73,68.73,0,0,0-5.58-4.79c-.31-.23-.5-.27-.79,0-.69.76-1.41,1.5-2.16,2.19a.67.67,0,0,0-.14,1,40.27,40.27,0,0,0,6,7.49.79.79,0,0,1,.16,1A28.81,28.81,0,0,0,128,174a.68.68,0,0,0,.38.87c1.11.6,2.21,1.21,3.27,1.89.54.35.82.21,1.18-.24A21.32,21.32,0,0,0,135.54,172Z"/><path class="cls-1" d="M129.57,116.53a9.31,9.31,0,0,1-.85,3.93,3.1,3.1,0,0,1-5.36.7,8,8,0,0,1-1.72-3.39,2.59,2.59,0,0,1,.14-1.26,15.54,15.54,0,0,1,1.4-4.36c1.23-2.31,3.21-2.52,4.89-.5A7.75,7.75,0,0,1,129.57,116.53Z"/><path class="cls-1" d="M93.27,175a7.62,7.62,0,0,1-.49,2.92c-1.54,3.83-5.61,3.29-7.38,1.23a8.38,8.38,0,0,1-.36-9.47,3.73,3.73,0,0,1,6.34,0A10.26,10.26,0,0,1,93.27,175Z"/><text class="cls-2" transform="translate(193.49 178.35)"><tspan class="cls-3">T</tspan><tspan x="55.71" y="0">ic</tspan><tspan class="cls-4" x="127.58" y="0"> </tspan><tspan class="cls-5" x="142.8" y="0">T</tspan><tspan x="188.08" y="0">ac</tspan><tspan class="cls-4" x="287" y="0"> </tspan><tspan class="cls-6" x="302.22" y="0">T</tspan><tspan x="347.41" y="0">oe</tspan></text></svg>