<svg id="Layer_1" data-name="Layer 1" xmlns="http://www.w3.org/2000/svg" viewBox="0 0 283.46 288"><defs><style>.cls-1{fill:#205072;}</style></defs><title>tictactoe_small</title><path class="cls-1" d="M141,43.65h11.94c.13.28.39.17.59.19a90.16,90.16,0,0,1,12.58,1.61c21.94,4.4,40.65,14.71,55.43,31.49,22.29,25.3,30.07,54.8,23.56,87.82a94.63,94.63,0,0,1-30.18,53c-24.62,22.22-53.54,30.52-86.19,24.88-22.34-3.86-41.11-14.62-56.29-31.42A98.48,98.48,0,0,1,46.92,152.6a6.2,6.2,0,0,0-.33-2.41V137.86c.3-.16.17-.45.19-.68a100.37,100.37,0,0,1,2.83-17.82A100.58,100.58,0,0,1,138.29,44,8.3,8.3,0,0,0,141,43.65ZM150.59,98c0-5.49.13-11-.35-16.45a52.9,52.9,0,0,0-1.53-9.1c-.16-.6-.35-.75-1-.56-1.37.43-2.78.75-4.18,1.1S142,73.4,141.77,75c0,0,0,.07,0,.1-1.23,7.14-1.37,14.36-1.5,21.58a244.33,244.33,0,0,0,2.34,39.54c.13.85-.11,1.07-.84,1.3-18.91,6-37.68,12.46-55.17,22a1.26,1.26,0,0,0-.77,1.06c-.25,2.17-.53,4.33-.88,6.48-.13.82.14.91.84.81a23.91,23.91,0,0,0,6.14-1.9c16.72-7.44,34.11-13,51.53-18.51.64-.21.77-.08.89.57,2.75,16.16,6.6,32.09,10.76,47.94a68.31,68.31,0,0,0,6.26,16c.33.59.53.61,1,.19,1.53-1.32,3.08-2.62,4.67-3.87a1.44,1.44,0,0,0,.57-1.4,91.94,91.94,0,0,0-2.86-15.69c-3.93-15.26-7.14-30.67-10-46.16-.14-.8.1-1,.76-1.14q14.17-3.76,28.34-7.58c8.75-2.37,17.45-4.95,26-8a1.18,1.18,0,0,0,.94-1.28c.06-1.41.14-2.82.27-4.22.07-.68-.18-.78-.79-.73a209.61,209.61,0,0,0-25.78,3.76c-10.31,2.14-20.46,4.88-30.53,7.91-.76.23-1,.07-1-.69A297.39,297.39,0,0,1,150.59,98Zm12.65-.15c0,.61,0,1.42.12,2.21a20.42,20.42,0,0,0,3.41,10c3.28,4.71,9.27,7.15,14.5,5.57A16.49,16.49,0,0,0,192.59,105,22.44,22.44,0,0,0,192,89.26a16.82,16.82,0,0,0-6.8-8.72c-6.37-3.93-13.89-3.28-18.49,4.14A25.22,25.22,0,0,0,163.24,97.89ZM138.43,185a22.2,22.2,0,0,0-6.64-15.46A14,14,0,0,0,110,172.18a21.43,21.43,0,0,0-3.09,12.31c.18,5.58,1.8,10.61,5.92,14.58,5.09,4.91,14.51,6.34,20.73-.6C136.86,194.74,138.33,190.3,138.43,185Zm-29.72-57.58.89.65a25.87,25.87,0,0,0,8.56,4.47,1.33,1.33,0,0,0,1.61-.36c1-1.08,2-2.11,3-3.09.56-.51.53-.85,0-1.39a49.64,49.64,0,0,0-8.18-7.14c-.74-.53-.79-.86-.28-1.61a38.29,38.29,0,0,0,5-10,.92.92,0,0,0-.45-1.25,17.16,17.16,0,0,1-3.67-3c-.76-.86-1.24-.67-2-.06a39.48,39.48,0,0,0-7.05,7.73c-.37.53-.59.65-1,.07s-1-1.13-1.44-1.68a32.69,32.69,0,0,0-6-5.81.75.75,0,0,0-1.14.07c-.9.86-1.84,1.7-2.81,2.48a.93.93,0,0,0-.34,1.23,19.91,19.91,0,0,0,1.77,3.51,50.38,50.38,0,0,0,5.52,6.91.84.84,0,0,1,.11,1.23c-.88,1.3-1.71,2.64-2.51,4a32.59,32.59,0,0,0-3.65,8.12c-.11.4-.2.68.25,1,2,1.27,3.85,2.66,5.87,3.85a1,1,0,0,0,1.52-.25,28.9,28.9,0,0,0,3.36-4.57C106.73,130.83,107.7,129.14,108.71,127.42Zm84.2,53.33c.45.34.82.64,1.2.94a30.7,30.7,0,0,0,6.71,4.1.78.78,0,0,0,1.15-.34c1.05-1.54,2.16-3,3.22-4.57.95-1.38.94-1.39-.12-2.75a44.1,44.1,0,0,0-7.84-7.36.93.93,0,0,1-.4-1.19c.67-2.11,1.27-4.24,1.88-6.36a22.56,22.56,0,0,0,1.22-7.28,1.16,1.16,0,0,0-.54-1.13q-1.9-1.12-3.77-2.32c-.51-.34-.68-.16-.9.32-1.63,3.51-3.31,7-4.92,10.53-.32.69-.47.79-1.07.24a102.85,102.85,0,0,0-8.4-7.2c-.47-.35-.75-.4-1.18.07-1,1.13-2.12,2.24-3.25,3.29a1,1,0,0,0-.22,1.51,61.43,61.43,0,0,0,9,11.27,1.17,1.17,0,0,1,.25,1.57,42.88,42.88,0,0,0-3.38,9.59,1,1,0,0,0,.57,1.31c1.66.9,3.32,1.82,4.91,2.85.82.53,1.24.31,1.78-.36A32.86,32.86,0,0,0,192.91,180.75Z"/><path class="cls-1" d="M183.93,97.34a14,14,0,0,1-1.28,5.91c-1.81,3.42-5.49,3.92-8.07,1A12.28,12.28,0,0,1,172,99.2a4.05,4.05,0,0,1,.21-1.89,23.63,23.63,0,0,1,2.11-6.56c1.85-3.48,4.83-3.79,7.35-.76C183.42,92.11,183.81,94.66,183.93,97.34Z"/><path class="cls-1" d="M129.34,185.23a11.61,11.61,0,0,1-.74,4.39c-2.31,5.76-8.44,4.95-11.09,1.84-3.07-3.58-3.36-10.44-.56-14.24,2.6-3.52,7-3.55,9.54,0A15.36,15.36,0,0,1,129.34,185.23Z"/></svg>